<svg width="45" height="44" viewBox="0 0 45 44" fill="none" xmlns="http://www.w3.org/2000/svg">
<g clip-path="url(#clip0_606_790)">
<path fill-rule="evenodd" clip-rule="evenodd" d="M22.5186 0C10.0664 0 0 9.91527 0 22.1818C0 31.9871 6.44989 40.2871 15.3976 43.2247C16.5163 43.4455 16.9261 42.7474 16.9261 42.1602C16.9261 41.6459 16.8892 39.8833 16.8892 38.0467C10.6251 39.369 9.32061 35.4025 9.32061 35.4025C8.31392 32.8317 6.82233 32.171 6.82233 32.171C4.77208 30.8121 6.97167 30.8121 6.97167 30.8121C9.24594 30.9591 10.4393 33.089 10.4393 33.089C12.4522 36.4675 15.6958 35.5129 17.0007 34.9252C17.187 33.4929 17.7839 32.5013 18.4177 31.9506C13.4216 31.4364 8.16504 29.5268 8.16504 21.0064C8.16504 18.5826 9.05926 16.5995 10.4762 15.0572C10.2526 14.5065 9.46949 12.2291 10.7002 9.18109C10.7002 9.18109 12.6016 8.59338 16.8887 11.458C18.7242 10.9724 20.6171 10.7254 22.5186 10.7234C24.42 10.7234 26.3582 10.9807 28.148 11.458C32.4357 8.59338 34.337 9.18109 34.337 9.18109C35.5677 12.2291 34.7841 14.5065 34.5606 15.0572C36.0149 16.5995 36.8722 18.5826 36.8722 21.0064C36.8722 29.5268 31.6157 31.3994 26.5822 31.9506C27.4027 32.6483 28.1107 33.9702 28.1107 36.0636C28.1107 39.0382 28.0738 41.4255 28.0738 42.1597C28.0738 42.7474 28.4841 43.4455 29.6023 43.2252C38.55 40.2866 44.9999 31.9871 44.9999 22.1818C45.0368 9.91527 34.9335 0 22.5186 0Z" fill="#3E01FF"/>
</g>
<defs>
<clipPath id="clip0_606_790">
<rect width="45" height="44" fill="white"/>
</clipPath>
</defs>
</svg>
