<svg width="20" height="15" viewBox="0 0 20 15" fill="none" xmlns="http://www.w3.org/2000/svg">
<path d="M18.3887 0.00488281C18.8927 0.0562988 19.2861 0.482386 19.2861 1V14L19.2812 14.1025C19.2334 14.573 18.8591 14.9471 18.3887 14.9951L18.2861 15H1L0.897461 14.9951C0.426982 14.9472 0.052705 14.573 0.00488281 14.1025L0 14V1C0 0.482323 0.393331 0.0562144 0.897461 0.00488281L1 0H18.2861L18.3887 0.00488281ZM10.1982 9.93945C9.86254 10.1633 9.42469 10.163 9.08887 9.93945L2 5.21289V13H17.2861V5.21289L10.1982 9.93945ZM2 2.83008C2.02489 2.84074 2.04995 2.85239 2.07422 2.86523L2.16211 2.91797L9.64258 7.90527L17.124 2.91797C17.1762 2.88319 17.2305 2.85389 17.2861 2.83008V2H2V2.83008Z" fill="black"/>
</svg>
