<svg width="18" height="18" viewBox="0 0 18 18" fill="none" xmlns="http://www.w3.org/2000/svg">
<path d="M16.5248 0.00488281C17.0288 0.0562675 17.4222 0.482363 17.4222 1V16.4219C17.4222 16.974 16.9743 17.4217 16.4222 17.4219H8.71129C8.15903 17.4219 7.71133 16.9741 7.71129 16.4219V13.5303C7.71149 12.9782 8.15913 12.5303 8.71129 12.5303C9.26331 12.5305 9.7111 12.9783 9.71129 13.5303V15.4219H15.4222V2H9.71129V3.8916C9.71126 4.44375 9.2634 4.89142 8.71129 4.8916C8.15903 4.8916 7.71133 4.44386 7.71129 3.8916V1L7.71617 0.897461C7.76751 0.393331 8.19361 0 8.71129 0H16.4222L16.5248 0.00488281ZM3.26012 5.04395C3.6529 4.72328 4.23276 4.74608 4.59899 5.1123C4.96491 5.47837 4.98749 6.05748 4.66735 6.4502L4.59899 6.52637L3.41442 7.71094H12.5668C13.119 7.71098 13.5667 8.15874 13.5668 8.71094C13.5668 9.26319 13.119 9.71089 12.5668 9.71094H3.41442L4.59899 10.8955C4.98936 11.2859 4.98922 11.919 4.59899 12.3096C4.20848 12.7001 3.57545 12.7 3.18492 12.3096L0.293323 9.41797L0.223987 9.3418C-0.0746353 8.97531 -0.0746894 8.44653 0.223987 8.08008L0.293323 8.00391L3.18492 5.1123L3.26012 5.04395Z" fill="black" fill-opacity="0.85"/>
</svg>
