<svg width="45" height="44" viewBox="0 0 45 44" fill="none" xmlns="http://www.w3.org/2000/svg">
<g clip-path="url(#clip0_606_794)">
<path fill-rule="evenodd" clip-rule="evenodd" d="M45 22C45 34.1503 34.9264 44 22.5 44C10.0736 44 0 34.1503 0 22C0 9.84974 10.0736 0 22.5 0C34.9264 0 45 9.84974 45 22ZM23.3063 16.2414C21.1178 17.1314 16.744 18.9735 10.1848 21.7678C9.11969 22.1819 8.56173 22.5871 8.51094 22.9832C8.4251 23.6527 9.28258 23.9164 10.4503 24.2754C10.6091 24.3242 10.7737 24.3748 10.9424 24.4284C12.0912 24.7936 13.6365 25.2208 14.4399 25.2377C15.1686 25.2531 15.982 24.9594 16.88 24.3565C23.0084 20.3115 26.172 18.267 26.3706 18.2229C26.5107 18.1918 26.7049 18.1527 26.8364 18.2671C26.968 18.3814 26.9551 18.5979 26.9411 18.656C26.8562 19.0101 23.4902 22.0698 21.7484 23.6533C21.2053 24.1469 20.8201 24.497 20.7414 24.577C20.565 24.7561 20.3852 24.9256 20.2125 25.0884C19.1452 26.0944 18.3448 26.8488 20.2568 28.0808C21.1756 28.6728 21.9108 29.1624 22.6443 29.6508C23.4453 30.1842 24.2443 30.7162 25.278 31.3787C25.5414 31.5475 25.7929 31.7229 26.0379 31.8936C26.9701 32.5435 27.8077 33.1273 28.8423 33.0342C29.4436 32.9801 30.0646 32.4273 30.38 30.7786C31.1254 26.8824 32.5905 18.4405 32.9292 14.9618C32.9588 14.657 32.9215 14.2669 32.8915 14.0957C32.8616 13.9245 32.7989 13.6805 32.5713 13.4999C32.3017 13.2861 31.8856 13.2409 31.6994 13.2442C30.8532 13.2587 29.5548 13.7002 23.3063 16.2414Z" fill="#3E01FF"/>
</g>
<defs>
<clipPath id="clip0_606_794">
<rect width="45" height="44" fill="white"/>
</clipPath>
</defs>
</svg>
