<svg width="45" height="44" viewBox="0 0 45 44" fill="none" xmlns="http://www.w3.org/2000/svg">
<g clip-path="url(#clip0_606_797)">
<path fill-rule="evenodd" clip-rule="evenodd" d="M3.16325 3.09295C0 6.18591 0 11.1639 0 21.12V22.88C0 32.8361 0 37.8141 3.16325 40.9071C6.32649 44 11.4176 44 21.6 44H23.4C33.5824 44 38.6735 44 41.8368 40.9071C45 37.8141 45 32.8361 45 22.88V21.12C45 11.1639 45 6.18591 41.8368 3.09295C38.6735 0 33.5824 0 23.4 0H21.6C11.4176 0 6.32649 0 3.16325 3.09295ZM7.59386 13.3834C7.83761 24.8234 13.6876 31.6984 23.9438 31.6984H24.5252V25.1534C28.2939 25.5201 31.1437 28.2151 32.2875 31.6984H37.6126C36.1501 26.4918 32.3062 23.6134 29.9062 22.5134C32.3062 21.1568 35.6812 17.8568 36.4874 13.3834H31.6498C30.5998 17.0134 27.4877 20.3134 24.5252 20.6251V13.3834H19.6875V26.0701C16.6875 25.3368 12.9001 21.7801 12.7313 13.3834H7.59386Z" fill="#3E01FF"/>
</g>
<defs>
<clipPath id="clip0_606_797">
<rect width="45" height="44" fill="white"/>
</clipPath>
</defs>
</svg>
