<svg width="45" height="44" viewBox="0 0 45 44" fill="none" xmlns="http://www.w3.org/2000/svg">
<path d="M0 44L3.17822 32.7012C1.21703 29.3938 0.186511 25.6447 0.188395 21.8002C0.194047 9.78083 10.2449 0 22.5942 0C28.587 0.00183333 34.2125 2.27333 38.4439 6.39467C42.6733 10.516 45.0019 15.994 45 21.8203C44.9943 33.8415 34.9435 43.6223 22.5942 43.6223C18.8451 43.6205 15.1507 42.7057 11.8783 40.9677L0 44ZM12.4284 37.0205C15.5859 38.8447 18.6002 39.9373 22.5867 39.9392C32.8504 39.9392 41.2114 31.8102 41.217 21.8167C41.2208 11.803 32.8994 3.685 22.6017 3.68133C12.3304 3.68133 3.97513 11.8103 3.97136 21.802C3.96948 25.8812 5.19781 28.9355 7.26074 32.131L5.37867 38.819L12.4284 37.0205ZM33.8809 27.0032C33.7415 26.7758 33.3685 26.6402 32.8071 26.367C32.2476 26.0938 29.4951 24.7757 28.9808 24.5942C28.4683 24.4127 28.0953 24.321 27.7204 24.8673C27.3474 25.4118 26.2735 26.6402 25.9476 27.0032C25.6217 27.3662 25.2939 27.412 24.7344 27.1388C24.1748 26.8657 22.37 26.2918 20.2317 24.4347C18.5682 22.99 17.4435 21.2062 17.1176 20.6598C16.7916 20.1153 17.0836 19.8202 17.3625 19.5488C17.6149 19.305 17.922 18.9127 18.2027 18.5937C18.4872 18.2783 18.5795 18.051 18.7679 17.6862C18.9544 17.3232 18.8621 17.0042 18.7208 16.731C18.5795 16.4597 17.4604 13.7775 16.9951 12.6867C16.5392 11.6252 16.0776 11.7682 15.7347 11.7517L14.6609 11.7333C14.2879 11.7333 13.6812 11.869 13.1688 12.4153C12.6564 12.9617 11.2095 14.278 11.2095 16.9602C11.2095 19.6423 13.2159 22.2328 13.4947 22.5958C13.7754 22.9588 17.4416 28.4625 23.0576 30.822C24.3934 31.383 25.4371 31.7185 26.2491 31.9697C27.5904 32.384 28.8112 32.3253 29.7758 32.186C30.8515 32.0302 33.0878 30.8678 33.555 29.5955C34.0222 28.3213 34.0222 27.2305 33.8809 27.0032Z" fill="#3E01FF"/>
</svg>
